<?xml version="1.0" encoding="utf-8"?>
<!-- Generator: Adobe Illustrator 24.0.0, SVG Export Plug-In . SVG Version: 6.00 Build 0)  -->
<svg version="1.1" id="Layer_1" xmlns="http://www.w3.org/2000/svg" xmlns:xlink="http://www.w3.org/1999/xlink" x="0px" y="0px"
	 viewBox="0 0 340.2 340.2" style="enable-background:new 0 0 340.2 340.2;" xml:space="preserve">
<style type="text/css">
	.st0{fill:#FFFFFF;}
</style>
<g>
	<path d="M335,0H5.1C2.3,0,0,2.3,0,5.1V335c0,2.8,2.3,5.1,5.1,5.1H335c2.8,0,5.1-2.3,5.1-5.1V5.1C340.2,2.3,337.9,0,335,0z"/>
	<path class="st0" d="M49.6,170.1c-7.6,0-12.4,4.2-13.9,5.8l-1.4-3.6c-0.3-0.7-0.8-1.2-1.7-1.2h-3.7c-1,0-1.9,0.8-1.9,1.9v35.6
		c0,1,0.9,1.9,1.9,1.9h7.3c1.9,0,2.5-0.5,2.5-1.9V187c1-2.7,4.1-6.2,9.2-6.2c4.7,0,7.4,3.2,7.4,8.4v19.5c0,1,0.8,1.9,1.9,1.9h8.1
		c1,0,1.9-0.9,1.9-1.9v-18.9C67.1,179.5,62,170.1,49.6,170.1z"/>
	<path class="st0" d="M90.4,170.1c-11.7,0-20.1,9.5-20.1,20.6c0,11.3,8.4,20.6,20.2,20.6c6.4,0,11.4-2.4,14.6-5.4
		c1-0.8,0.8-1.9,0.1-2.6l-4-4.6c-0.7-0.8-1.6-0.6-2.6,0c-1.8,1.3-4.6,2.5-7.7,2.5c-5.7,0-9.1-4.5-9.4-8.6h25.2
		c0.9,0,1.8-0.7,1.9-1.7c0.1-0.7,0.2-2,0.2-2.7C108.7,177.8,100.5,170.1,90.4,170.1z M82.4,185.9c0.5-3.7,3.7-6.7,7.7-6.7
		c3.7,0,6.9,3,7.2,6.7H82.4z"/>
	<path class="st0" d="M134.5,190.3l12.4-16.3c1-1.3,0.5-2.9-1.2-2.9h-8.8c-1.4,0-2.2,0.3-2.9,1.4l-6.5,9.2h-0.1l-6.4-9.2
		c-0.9-1.3-2-1.4-3.2-1.4h-8.2c-1.7,0-2.5,1.6-1.5,2.9l12.4,16.4l-12.8,17.2c-0.9,1.3-0.5,2.9,1.2,2.9h9.4c0.5,0,1.3-0.4,1.6-0.8
		l7.5-10.6h0.1l7,9.8c0.7,1,1.5,1.6,2.8,1.6h8.7c1.6,0,2.1-1.6,1.2-2.9L134.5,190.3z"/>
	<path class="st0" d="M185.8,171.1h-7.5c-1.6,0-2.2,0.4-2.2,1.9v20.4c-0.6,3.5-3.7,7.4-7.9,7.4c-4.5,0-7.2-3.2-7.2-8.5V173
		c0-1.1-0.9-1.9-1.9-1.9h-8.1c-1,0-1.9,0.8-1.9,1.9v19.1c0,10,4.4,19.4,16.6,19.4c7.8,0,11.4-4.1,13.2-5.7l1.2,3.2
		c0.3,0.8,0.9,1.5,1.9,1.5h3.6c1,0,1.9-0.9,1.9-1.9V173C187.6,171.9,186.8,171.1,185.8,171.1z"/>
	<path class="st0" d="M239.9,170.1c-7.1,0-12.2,4.3-13.9,6.1c-3.2-3.9-7.2-6.1-12.8-6.1c-7,0-11.5,3.9-13.2,5.8l-1.4-3.7
		c-0.2-0.6-0.8-1.1-1.7-1.1h-3.6c-1,0-1.9,0.8-1.9,1.9v35.6c0,1,0.9,1.9,1.9,1.9h8c1,0,1.9-0.9,1.9-1.9V187c1-2.7,3.3-6.2,8.3-6.2
		c5,0,7.3,3.2,7.3,8.4v19.5c0,1,0.8,1.9,1.9,1.9h7.4c1,0,1.9-0.9,1.9-1.9v-20c0-1.8-0.1-3.7-0.1-3.7s2.6-4.1,8.3-4.1
		c4.9,0,7.4,3.2,7.4,8.4v19.5c0,1,0.8,1.9,1.9,1.9h8c1.1,0,1.9-0.9,1.9-1.9v-18.8C257.2,179.5,252.5,170.1,239.9,170.1z"/>
	<path class="st0" d="M277.9,195.9h-10.8c-1,0-1.9,0.9-1.9,1.9v3.1v7.7c0,1,0.9,1.9,1.9,1.9h10.8c1,0,1.9-0.9,1.9-1.9v-7.7v-3.1
		C279.8,196.8,278.9,195.9,277.9,195.9z"/>
</g>
</svg>
